<svg width="393" height="53" viewBox="0 0 393 53" fill="none" xmlns="http://www.w3.org/2000/svg">
<mask id="path-1-outside-1_89_5082" maskUnits="userSpaceOnUse" x="0" y="0" width="393" height="53" fill="black">
<rect fill="white" width="393" height="53"/>
<path d="M2.69966 50V3.45454H20.1542C23.73 3.45454 26.73 4.12121 29.1542 5.45454C31.5936 6.78788 33.4345 8.62121 34.6769 10.9545C35.9345 13.2727 36.5633 15.9091 36.5633 18.8636C36.5633 21.8485 35.9345 24.5 34.6769 26.8182C33.4194 29.1364 31.5633 30.9621 29.1087 32.2955C26.6542 33.6136 23.6315 34.2727 20.0406 34.2727H8.47239V27.3409H18.9042C20.9951 27.3409 22.7072 26.9773 24.0406 26.25C25.3739 25.5227 26.3588 24.5227 26.9951 23.25C27.6466 21.9773 27.9724 20.5152 27.9724 18.8636C27.9724 17.2121 27.6466 15.7576 26.9951 14.5C26.3588 13.2424 25.3663 12.2652 24.0178 11.5682C22.6845 10.8561 20.9648 10.5 18.8587 10.5H11.1315V50H2.69966ZM89.3181 26.7273C89.3181 31.7424 88.3787 36.0379 86.4999 39.6136C84.6363 43.1742 82.0908 45.9015 78.8635 47.7955C75.6514 49.6894 72.0075 50.6364 67.9317 50.6364C63.8559 50.6364 60.2044 49.6894 56.9772 47.7955C53.765 45.8864 51.2196 43.1515 49.3408 39.5909C47.4772 36.0152 46.5453 31.7273 46.5453 26.7273C46.5453 21.7121 47.4772 17.4242 49.3408 13.8636C51.2196 10.2879 53.765 7.55303 56.9772 5.65909C60.2044 3.76515 63.8559 2.81818 67.9317 2.81818C72.0075 2.81818 75.6514 3.76515 78.8635 5.65909C82.0908 7.55303 84.6363 10.2879 86.4999 13.8636C88.3787 17.4242 89.3181 21.7121 89.3181 26.7273ZM80.8408 26.7273C80.8408 23.197 80.2878 20.2197 79.1817 17.7955C78.0908 15.3561 76.5756 13.5152 74.6362 12.2727C72.6969 11.0152 70.462 10.3864 67.9317 10.3864C65.4014 10.3864 63.1666 11.0152 61.2272 12.2727C59.2878 13.5152 57.765 15.3561 56.659 17.7955C55.5681 20.2197 55.0226 23.197 55.0226 26.7273C55.0226 30.2576 55.5681 33.2424 56.659 35.6818C57.765 38.1061 59.2878 39.947 61.2272 41.2045C63.1666 42.447 65.4014 43.0682 67.9317 43.0682C70.462 43.0682 72.6969 42.447 74.6362 41.2045C76.5756 39.947 78.0908 38.1061 79.1817 35.6818C80.2878 33.2424 80.8408 30.2576 80.8408 26.7273ZM101.13 50V3.45454H118.584C122.16 3.45454 125.16 4.07576 127.584 5.31818C130.024 6.5606 131.865 8.30303 133.107 10.5455C134.365 12.7727 134.993 15.3712 134.993 18.3409C134.993 21.3258 134.357 23.9167 133.084 26.1136C131.827 28.2955 129.971 29.9848 127.516 31.1818C125.061 32.3636 122.046 32.9545 118.471 32.9545H106.039V25.9545H117.334C119.425 25.9545 121.137 25.6667 122.471 25.0909C123.804 24.5 124.789 23.6439 125.425 22.5227C126.077 21.3864 126.402 19.9924 126.402 18.3409C126.402 16.6894 126.077 15.2803 125.425 14.1136C124.774 12.9318 123.781 12.0379 122.448 11.4318C121.115 10.8106 119.395 10.5 117.289 10.5H109.561V50H101.13ZM125.175 28.9091L136.698 50H127.289L115.971 28.9091H125.175ZM144.549 10.5227V3.45454H181.686V10.5227H167.299V50H158.936V10.5227H144.549ZM192.685 50V3.45454H222.503V10.5227H201.116V23.1591H220.457V30.2273H201.116V50H192.685ZM275.616 26.7273C275.616 31.7424 274.676 36.0379 272.797 39.6136C270.934 43.1742 268.388 45.9015 265.161 47.7955C261.949 49.6894 258.305 50.6364 254.229 50.6364C250.153 50.6364 246.502 49.6894 243.275 47.7955C240.063 45.8864 237.517 43.1515 235.638 39.5909C233.775 36.0152 232.843 31.7273 232.843 26.7273C232.843 21.7121 233.775 17.4242 235.638 13.8636C237.517 10.2879 240.063 7.55303 243.275 5.65909C246.502 3.76515 250.153 2.81818 254.229 2.81818C258.305 2.81818 261.949 3.76515 265.161 5.65909C268.388 7.55303 270.934 10.2879 272.797 13.8636C274.676 17.4242 275.616 21.7121 275.616 26.7273ZM267.138 26.7273C267.138 23.197 266.585 20.2197 265.479 17.7955C264.388 15.3561 262.873 13.5152 260.934 12.2727C258.994 11.0152 256.76 10.3864 254.229 10.3864C251.699 10.3864 249.464 11.0152 247.525 12.2727C245.585 13.5152 244.063 15.3561 242.956 17.7955C241.866 20.2197 241.32 23.197 241.32 26.7273C241.32 30.2576 241.866 33.2424 242.956 35.6818C244.063 38.1061 245.585 39.947 247.525 41.2045C249.464 42.447 251.699 43.0682 254.229 43.0682C256.76 43.0682 258.994 42.447 260.934 41.2045C262.873 39.947 264.388 38.1061 265.479 35.6818C266.585 33.2424 267.138 30.2576 267.138 26.7273ZM287.427 50V3.45454H295.859V42.9318H316.359V50H287.427ZM335.949 3.45454V50H327.517V3.45454H335.949ZM390.511 26.7273C390.511 31.7424 389.571 36.0379 387.692 39.6136C385.829 43.1742 383.283 45.9015 380.056 47.7955C376.844 49.6894 373.2 50.6364 369.124 50.6364C365.048 50.6364 361.397 49.6894 358.17 47.7955C354.958 45.8864 352.412 43.1515 350.533 39.5909C348.67 36.0152 347.738 31.7273 347.738 26.7273C347.738 21.7121 348.67 17.4242 350.533 13.8636C352.412 10.2879 354.958 7.55303 358.17 5.65909C361.397 3.76515 365.048 2.81818 369.124 2.81818C373.2 2.81818 376.844 3.76515 380.056 5.65909C383.283 7.55303 385.829 10.2879 387.692 13.8636C389.571 17.4242 390.511 21.7121 390.511 26.7273ZM382.033 26.7273C382.033 23.197 381.48 20.2197 380.374 17.7955C379.283 15.3561 377.768 13.5152 375.829 12.2727C373.889 11.0152 371.654 10.3864 369.124 10.3864C366.594 10.3864 364.359 11.0152 362.42 12.2727C360.48 13.5152 358.958 15.3561 357.851 17.7955C356.761 20.2197 356.215 23.197 356.215 26.7273C356.215 30.2576 356.761 33.2424 357.851 35.6818C358.958 38.1061 360.48 39.947 362.42 41.2045C364.359 42.447 366.594 43.0682 369.124 43.0682C371.654 43.0682 373.889 42.447 375.829 41.2045C377.768 39.947 379.283 38.1061 380.374 35.6818C381.48 33.2424 382.033 30.2576 382.033 26.7273Z"/>
</mask>
<path d="M2.69966 50H0.699658V52H2.69966V50ZM2.69966 3.45454V1.45454H0.699658V3.45454H2.69966ZM29.1542 5.45454L28.1904 7.20698L28.195 7.2095L29.1542 5.45454ZM34.6769 10.9545L32.9116 11.8945L32.9152 11.9014L32.919 11.9082L34.6769 10.9545ZM34.6769 26.8182L36.4349 27.7719L34.6769 26.8182ZM29.1087 32.2955L30.055 34.0575L30.0634 34.0529L29.1087 32.2955ZM8.47239 34.2727H6.47239V36.2727H8.47239V34.2727ZM8.47239 27.3409V25.3409H6.47239V27.3409H8.47239ZM24.0406 26.25L24.9983 28.0058H24.9983L24.0406 26.25ZM26.9951 23.25L25.2148 22.3387L25.2105 22.3471L25.2063 22.3556L26.9951 23.25ZM26.9951 14.5L25.2106 15.403L25.2149 15.4115L25.2193 15.42L26.9951 14.5ZM24.0178 11.5682L23.0756 13.3323L23.0875 13.3387L23.0995 13.3449L24.0178 11.5682ZM11.1315 10.5V8.5H9.13148V10.5H11.1315ZM11.1315 50V52H13.1315V50H11.1315ZM4.69966 50V3.45454H0.699658V50H4.69966ZM2.69966 5.45454H20.1542V1.45454H2.69966V5.45454ZM20.1542 5.45454C23.4889 5.45454 26.1354 6.07673 28.1904 7.20698L30.118 3.70211C27.3245 2.16569 23.9711 1.45454 20.1542 1.45454V5.45454ZM28.195 7.2095C30.3105 8.36583 31.8623 9.92395 32.9116 11.8945L36.4423 10.0146C35.0067 7.31847 32.8767 5.20993 30.1134 3.69959L28.195 7.2095ZM32.919 11.9082C33.9994 13.8998 34.5633 16.2014 34.5633 18.8636H38.5633C38.5633 15.6167 37.8697 12.6457 36.4349 10.0009L32.919 11.9082ZM34.5633 18.8636C34.5633 21.5599 33.9978 23.8759 32.919 25.8645L36.4349 27.7719C37.8713 25.1241 38.5633 22.1371 38.5633 18.8636H34.5633ZM32.919 25.8645C31.8569 27.8222 30.2899 29.3778 28.1541 30.538L30.0634 34.0529C32.8367 32.5464 34.9818 30.4505 36.4349 27.7719L32.919 25.8645ZM28.1625 30.5335C26.0709 31.6567 23.394 32.2727 20.0406 32.2727V36.2727C23.869 36.2727 27.2375 35.5705 30.055 34.0574L28.1625 30.5335ZM20.0406 32.2727H8.47239V36.2727H20.0406V32.2727ZM10.4724 34.2727V27.3409H6.47239V34.2727H10.4724ZM8.47239 29.3409H18.9042V25.3409H8.47239V29.3409ZM18.9042 29.3409C21.2098 29.3409 23.2813 28.9423 24.9983 28.0058L23.0829 24.4942C22.1331 25.0122 20.7804 25.3409 18.9042 25.3409V29.3409ZM24.9983 28.0058C26.6646 27.0969 27.9524 25.8075 28.784 24.1444L25.2063 22.3556C24.7651 23.2379 24.0832 23.9486 23.0829 24.4942L24.9983 28.0058ZM28.7754 24.1613C29.5922 22.5657 29.9724 20.7828 29.9724 18.8636H25.9724C25.9724 20.2475 25.701 21.3888 25.2148 22.3387L28.7754 24.1613ZM29.9724 18.8636C29.9724 16.9452 29.5924 15.1656 28.7709 13.58L25.2193 15.42C25.7008 16.3495 25.9724 17.4791 25.9724 18.8636H29.9724ZM28.7796 13.597C27.9386 11.935 26.6276 10.6657 24.9361 9.79146L23.0995 13.3449C24.105 13.8646 24.7789 14.5499 25.2106 15.403L28.7796 13.597ZM24.9601 9.80403C23.2453 8.88821 21.1712 8.5 18.8587 8.5V12.5C20.7584 12.5 22.1237 12.8239 23.0756 13.3323L24.9601 9.80403ZM18.8587 8.5H11.1315V12.5H18.8587V8.5ZM9.13148 10.5V50H13.1315V10.5H9.13148ZM11.1315 48H2.69966V52H11.1315V48ZM86.4999 39.6136L84.7294 38.6834L84.7279 38.6862L86.4999 39.6136ZM78.8635 47.7955L77.8512 46.0705L77.8477 46.0726L78.8635 47.7955ZM56.9772 47.7955L55.9553 49.5147L55.9649 49.5204L56.9772 47.7955ZM49.3408 39.5909L47.5672 40.5153L47.5719 40.5243L49.3408 39.5909ZM49.3408 13.8636L47.5703 12.9334L47.5688 12.9362L49.3408 13.8636ZM56.9772 5.65909L55.9649 3.93418L55.9613 3.93627L56.9772 5.65909ZM78.8635 5.65909L77.8477 7.38191L77.8512 7.384L78.8635 5.65909ZM86.4999 13.8636L84.7263 14.788L84.731 14.797L86.4999 13.8636ZM79.1817 17.7955L77.356 18.6119L77.359 18.6188L77.3621 18.6256L79.1817 17.7955ZM74.6362 12.2727L73.5481 13.9508L73.5574 13.9568L74.6362 12.2727ZM61.2272 12.2727L62.306 13.9568L62.3153 13.9508L61.2272 12.2727ZM56.659 17.7955L54.8375 16.9695L54.8351 16.9747L56.659 17.7955ZM56.659 35.6818L54.8332 36.4983L54.8363 36.5052L54.8394 36.512L56.659 35.6818ZM61.2272 41.2045L60.139 42.8827L60.1483 42.8886L61.2272 41.2045ZM74.6362 41.2045L75.7151 42.8886L75.7244 42.8826L74.6362 41.2045ZM79.1817 35.6818L77.3602 34.8559L77.3579 34.8611L79.1817 35.6818ZM87.3181 26.7273C87.3181 31.4953 86.4253 35.4557 84.7294 38.6834L88.2704 40.5439C90.332 36.6201 91.3181 31.9896 91.3181 26.7273H87.3181ZM84.7279 38.6862C83.0245 41.9407 80.7316 44.3802 77.8512 46.0705L79.8758 49.5204C83.45 47.4229 86.248 44.4078 88.2718 40.5411L84.7279 38.6862ZM77.8477 46.0726C74.9716 47.7685 71.6844 48.6364 67.9317 48.6364V52.6364C72.3305 52.6364 76.3312 51.6103 79.8793 49.5183L77.8477 46.0726ZM67.9317 48.6364C64.1791 48.6364 60.8827 47.7685 57.9894 46.0705L55.9649 49.5204C59.5262 51.6103 63.5328 52.6364 67.9317 52.6364V48.6364ZM57.999 46.0762C55.128 44.3699 52.8304 41.9186 51.1096 38.6576L47.5719 40.5243C49.6088 44.3844 52.4021 47.4029 55.9553 49.5147L57.999 46.0762ZM51.1144 38.6665C49.431 35.4367 48.5453 31.4813 48.5453 26.7273H44.5453C44.5453 31.9732 45.5233 36.5936 47.5672 40.5153L51.1144 38.6665ZM48.5453 26.7273C48.5453 21.9566 49.4315 18.0032 51.1128 14.7911L47.5688 12.9362C45.5228 16.8453 44.5453 21.4676 44.5453 26.7273H48.5453ZM51.1113 14.7939C52.832 11.5189 55.1278 9.07128 57.993 7.38191L55.9613 3.93627C52.4023 6.03478 49.6071 9.05686 47.5703 12.9334L51.1113 14.7939ZM57.9894 7.384C60.8827 5.68607 64.1791 4.81818 67.9317 4.81818V0.81818C63.5328 0.81818 59.5262 1.84423 55.9649 3.93418L57.9894 7.384ZM67.9317 4.81818C71.6844 4.81818 74.9716 5.68608 77.8477 7.38191L79.8793 3.93626C76.3312 1.84421 72.3305 0.81818 67.9317 0.81818V4.81818ZM77.8512 7.384C80.7294 9.07307 83.0222 11.5184 84.7263 14.788L88.2735 12.9393C86.2503 9.05738 83.4522 6.03299 79.8758 3.93418L77.8512 7.384ZM84.731 14.797C86.4252 18.0077 87.3181 21.9589 87.3181 26.7273H91.3181C91.3181 21.4653 90.3322 16.8408 88.2687 12.9303L84.731 14.797ZM82.8408 26.7273C82.8408 22.9991 82.2582 19.7202 81.0013 16.9653L77.3621 18.6256C78.3173 20.7192 78.8408 23.3948 78.8408 26.7273H82.8408ZM81.0075 16.979C79.7835 14.2421 78.0327 12.0733 75.7151 10.5887L73.5574 13.9568C75.1186 14.957 76.3981 16.47 77.356 18.6119L81.0075 16.979ZM75.7244 10.5946C73.4305 9.10718 70.8102 8.38636 67.9317 8.38636V12.3864C70.1139 12.3864 71.9632 12.9231 73.5481 13.9508L75.7244 10.5946ZM67.9317 8.38636C65.0532 8.38636 62.4329 9.10718 60.139 10.5946L62.3153 13.9508C63.9002 12.9231 65.7496 12.3864 67.9317 12.3864V8.38636ZM60.1483 10.5887C57.8335 12.0716 56.0765 14.2369 54.8375 16.9696L58.4805 18.6214C59.4536 16.4752 60.742 14.9587 62.306 13.9568L60.1483 10.5887ZM54.8351 16.9747C53.5967 19.7269 53.0226 23.0023 53.0226 26.7273H57.0226C57.0226 23.3917 57.5395 20.7125 58.4828 18.6162L54.8351 16.9747ZM53.0226 26.7273C53.0226 30.4529 53.5969 33.7337 54.8332 36.4983L58.4847 34.8653C57.5393 32.7512 57.0226 30.0622 57.0226 26.7273H53.0226ZM54.8394 36.512C56.0789 39.2286 57.8335 41.3877 60.139 42.8826L62.3153 39.5265C60.742 38.5063 59.4512 36.9835 58.4785 34.8516L54.8394 36.512ZM60.1483 42.8886C62.4411 44.3575 65.0581 45.0682 67.9317 45.0682V41.0682C65.7447 41.0682 63.892 40.5365 62.306 39.5205L60.1483 42.8886ZM67.9317 45.0682C70.8053 45.0682 73.4223 44.3575 75.7151 42.8886L73.5574 39.5205C71.9715 40.5365 70.1187 41.0682 67.9317 41.0682V45.0682ZM75.7244 42.8826C78.0326 41.3859 79.7812 39.2234 81.0055 36.5025L77.3579 34.8611C76.4004 36.9887 75.1187 38.508 73.5481 39.5265L75.7244 42.8826ZM81.0032 36.5077C82.258 33.7403 82.8408 30.456 82.8408 26.7273H78.8408C78.8408 30.0591 78.3175 32.7446 77.3602 34.8559L81.0032 36.5077ZM101.13 50H99.1297V52H101.13V50ZM101.13 3.45454V1.45454H99.1297V3.45454H101.13ZM127.584 5.31818L126.672 7.09805L126.677 7.10034L127.584 5.31818ZM133.107 10.5455L131.357 11.5147L131.361 11.5218L131.365 11.5288L133.107 10.5455ZM133.084 26.1136L131.354 25.1111L131.351 25.1149L133.084 26.1136ZM127.516 31.1818L128.384 32.9838L128.393 32.9795L127.516 31.1818ZM106.039 32.9545H104.039V34.9545H106.039V32.9545ZM106.039 25.9545V23.9545H104.039V25.9545H106.039ZM122.471 25.0909L123.263 26.927L123.272 26.9233L123.281 26.9194L122.471 25.0909ZM125.425 22.5227L123.69 21.5279L123.686 21.5355L125.425 22.5227ZM125.425 14.1136L123.674 15.0792L123.679 15.0888L125.425 14.1136ZM122.448 11.4318L121.603 13.2447L121.612 13.2487L121.62 13.2525L122.448 11.4318ZM109.561 10.5V8.5H107.561V10.5H109.561ZM109.561 50V52H111.561V50H109.561ZM125.175 28.9091L126.93 27.9502L126.361 26.9091H125.175V28.9091ZM136.698 50V52H140.07L138.453 49.0411L136.698 50ZM127.289 50L125.526 50.9457L126.092 52H127.289V50ZM115.971 28.9091V26.9091H112.628L114.208 29.8548L115.971 28.9091ZM103.13 50V3.45454H99.1297V50H103.13ZM101.13 5.45454H118.584V1.45454H101.13V5.45454ZM118.584 5.45454C121.938 5.45454 124.604 6.03834 126.672 7.09805L128.496 3.53831C125.716 2.11317 122.382 1.45454 118.584 1.45454V5.45454ZM126.677 7.10034C128.786 8.1747 130.322 9.64521 131.357 11.5147L134.856 9.57617C133.407 6.96084 131.261 4.94651 128.492 3.53602L126.677 7.10034ZM131.365 11.5288C132.428 13.4108 132.993 15.6598 132.993 18.3409H136.993C136.993 15.0826 136.301 12.1347 134.848 9.56212L131.365 11.5288ZM132.993 18.3409C132.993 21.036 132.421 23.2685 131.354 25.1111L134.815 27.1162C136.293 24.5648 136.993 21.6155 136.993 18.3409H132.993ZM131.351 25.1149C130.31 26.9216 128.767 28.3467 126.639 29.3842L128.393 32.9795C131.174 31.623 133.343 29.6693 134.817 27.1124L131.351 25.1149ZM126.648 29.3798C124.535 30.3972 121.836 30.9545 118.471 30.9545V34.9545C122.257 34.9545 125.588 34.3301 128.384 32.9838L126.648 29.3798ZM118.471 30.9545H106.039V34.9545H118.471V30.9545ZM108.039 32.9545V25.9545H104.039V32.9545H108.039ZM106.039 27.9545H117.334V23.9545H106.039V27.9545ZM117.334 27.9545C119.587 27.9545 121.595 27.6475 123.263 26.927L121.678 23.2548C120.679 23.6859 119.263 23.9545 117.334 23.9545V27.9545ZM123.281 26.9194C124.952 26.1787 126.289 25.0519 127.164 23.5099L123.686 21.5355C123.288 22.2359 122.655 22.8213 121.66 23.2624L123.281 26.9194ZM127.16 23.5175C128.025 22.0091 128.402 20.2518 128.402 18.3409H124.402C124.402 19.733 124.128 20.7637 123.69 21.528L127.16 23.5175ZM128.402 18.3409C128.402 16.4277 128.024 14.6658 127.171 13.1385L123.679 15.0888C124.129 15.8948 124.402 16.9511 124.402 18.3409H128.402ZM127.177 13.1481C126.299 11.5565 124.965 10.3792 123.275 9.61108L121.62 13.2525C122.597 13.6965 123.248 14.3071 123.674 15.0792L127.177 13.1481ZM123.292 9.61892C121.606 8.83316 119.57 8.5 117.289 8.5V12.5C119.22 12.5 120.623 12.7881 121.603 13.2447L123.292 9.61892ZM117.289 8.5H109.561V12.5H117.289V8.5ZM107.561 10.5V50H111.561V10.5H107.561ZM109.561 48H101.13V52H109.561V48ZM123.42 29.868L134.943 50.9589L138.453 49.0411L126.93 27.9502L123.42 29.868ZM136.698 48H127.289V52H136.698V48ZM129.051 49.0543L117.733 27.9634L114.208 29.8548L125.526 50.9457L129.051 49.0543ZM115.971 30.9091H125.175V26.9091H115.971V30.9091ZM144.549 10.5227H142.549V12.5227H144.549V10.5227ZM144.549 3.45454V1.45454H142.549V3.45454H144.549ZM181.686 3.45454H183.686V1.45454H181.686V3.45454ZM181.686 10.5227V12.5227H183.686V10.5227H181.686ZM167.299 10.5227V8.52273H165.299V10.5227H167.299ZM167.299 50V52H169.299V50H167.299ZM158.936 50H156.936V52H158.936V50ZM158.936 10.5227H160.936V8.52273H158.936V10.5227ZM146.549 10.5227V3.45454H142.549V10.5227H146.549ZM144.549 5.45454H181.686V1.45454H144.549V5.45454ZM179.686 3.45454V10.5227H183.686V3.45454H179.686ZM181.686 8.52273H167.299V12.5227H181.686V8.52273ZM165.299 10.5227V50H169.299V10.5227H165.299ZM167.299 48H158.936V52H167.299V48ZM160.936 50V10.5227H156.936V50H160.936ZM158.936 8.52273H144.549V12.5227H158.936V8.52273ZM192.685 50H190.685V52H192.685V50ZM192.685 3.45454V1.45454H190.685V3.45454H192.685ZM222.503 3.45454H224.503V1.45454H222.503V3.45454ZM222.503 10.5227V12.5227H224.503V10.5227H222.503ZM201.116 10.5227V8.52273H199.116V10.5227H201.116ZM201.116 23.1591H199.116V25.1591H201.116V23.1591ZM220.457 23.1591H222.457V21.1591H220.457V23.1591ZM220.457 30.2273V32.2273H222.457V30.2273H220.457ZM201.116 30.2273V28.2273H199.116V30.2273H201.116ZM201.116 50V52H203.116V50H201.116ZM194.685 50V3.45454H190.685V50H194.685ZM192.685 5.45454H222.503V1.45454H192.685V5.45454ZM220.503 3.45454V10.5227H224.503V3.45454H220.503ZM222.503 8.52273H201.116V12.5227H222.503V8.52273ZM199.116 10.5227V23.1591H203.116V10.5227H199.116ZM201.116 25.1591H220.457V21.1591H201.116V25.1591ZM218.457 23.1591V30.2273H222.457V23.1591H218.457ZM220.457 28.2273H201.116V32.2273H220.457V28.2273ZM199.116 30.2273V50H203.116V30.2273H199.116ZM201.116 48H192.685V52H201.116V48ZM272.797 39.6136L271.027 38.6834L271.025 38.6862L272.797 39.6136ZM265.161 47.7955L264.149 46.0705L264.145 46.0726L265.161 47.7955ZM243.275 47.7955L242.253 49.5147L242.262 49.5204L243.275 47.7955ZM235.638 39.5909L233.865 40.5153L233.869 40.5243L235.638 39.5909ZM235.638 13.8636L233.868 12.9334L233.866 12.9362L235.638 13.8636ZM243.275 5.65909L242.262 3.93418L242.259 3.93627L243.275 5.65909ZM265.161 5.65909L264.145 7.38191L264.149 7.384L265.161 5.65909ZM272.797 13.8636L271.024 14.788L271.029 14.797L272.797 13.8636ZM265.479 17.7955L263.653 18.6119L263.657 18.6188L263.66 18.6256L265.479 17.7955ZM260.934 12.2727L259.846 13.9508L259.855 13.9568L260.934 12.2727ZM247.525 12.2727L248.604 13.9568L248.613 13.9508L247.525 12.2727ZM242.956 17.7955L241.135 16.9695L241.133 16.9747L242.956 17.7955ZM242.956 35.6818L241.131 36.4983L241.134 36.5052L241.137 36.512L242.956 35.6818ZM247.525 41.2045L246.437 42.8827L246.446 42.8886L247.525 41.2045ZM260.934 41.2045L262.013 42.8886L262.022 42.8826L260.934 41.2045ZM265.479 35.6818L263.658 34.8559L263.655 34.8611L265.479 35.6818ZM273.616 26.7273C273.616 31.4953 272.723 35.4557 271.027 38.6834L274.568 40.5439C276.63 36.6201 277.616 31.9896 277.616 26.7273H273.616ZM271.025 38.6862C269.322 41.9407 267.029 44.3802 264.149 46.0705L266.173 49.5204C269.747 47.4229 272.545 44.4078 274.569 40.5411L271.025 38.6862ZM264.145 46.0726C261.269 47.7685 257.982 48.6364 254.229 48.6364V52.6364C258.628 52.6364 262.629 51.6103 266.177 49.5183L264.145 46.0726ZM254.229 48.6364C250.477 48.6364 247.18 47.7685 244.287 46.0705L242.262 49.5204C245.824 51.6103 249.83 52.6364 254.229 52.6364V48.6364ZM244.296 46.0762C241.426 44.3699 239.128 41.9186 237.407 38.6576L233.869 40.5243C235.906 44.3844 238.7 47.4029 242.253 49.5147L244.296 46.0762ZM237.412 38.6665C235.728 35.4367 234.843 31.4813 234.843 26.7273H230.843C230.843 31.9732 231.821 36.5936 233.865 40.5153L237.412 38.6665ZM234.843 26.7273C234.843 21.9566 235.729 18.0032 237.41 14.7911L233.866 12.9362C231.82 16.8453 230.843 21.4676 230.843 26.7273H234.843ZM237.409 14.7939C239.13 11.5189 241.425 9.07128 244.29 7.38191L242.259 3.93627C238.7 6.03478 235.905 9.05686 233.868 12.9334L237.409 14.7939ZM244.287 7.384C247.18 5.68607 250.477 4.81818 254.229 4.81818V0.81818C249.83 0.81818 245.824 1.84423 242.262 3.93418L244.287 7.384ZM254.229 4.81818C257.982 4.81818 261.269 5.68608 264.145 7.38191L266.177 3.93626C262.629 1.84421 258.628 0.81818 254.229 0.81818V4.81818ZM264.149 7.384C267.027 9.07307 269.32 11.5184 271.024 14.788L274.571 12.9393C272.548 9.05738 269.75 6.03299 266.173 3.93418L264.149 7.384ZM271.029 14.797C272.723 18.0077 273.616 21.9589 273.616 26.7273H277.616C277.616 21.4653 276.63 16.8408 274.566 12.9303L271.029 14.797ZM269.138 26.7273C269.138 22.9991 268.556 19.7202 267.299 16.9653L263.66 18.6256C264.615 20.7192 265.138 23.3948 265.138 26.7273H269.138ZM267.305 16.979C266.081 14.2421 264.33 12.0733 262.013 10.5887L259.855 13.9568C261.416 14.957 262.696 16.47 263.653 18.6119L267.305 16.979ZM262.022 10.5946C259.728 9.10718 257.108 8.38636 254.229 8.38636V12.3864C256.411 12.3864 258.261 12.9231 259.846 13.9508L262.022 10.5946ZM254.229 8.38636C251.351 8.38636 248.73 9.10718 246.437 10.5946L248.613 13.9508C250.198 12.9231 252.047 12.3864 254.229 12.3864V8.38636ZM246.446 10.5887C244.131 12.0716 242.374 14.2369 241.135 16.9696L244.778 18.6214C245.751 16.4752 247.04 14.9587 248.604 13.9568L246.446 10.5887ZM241.133 16.9747C239.894 19.7269 239.32 23.0023 239.32 26.7273H243.32C243.32 23.3917 243.837 20.7125 244.78 18.6162L241.133 16.9747ZM239.32 26.7273C239.32 30.4529 239.894 33.7337 241.131 36.4983L244.782 34.8653C243.837 32.7512 243.32 30.0622 243.32 26.7273H239.32ZM241.137 36.512C242.376 39.2286 244.131 41.3877 246.437 42.8826L248.613 39.5265C247.039 38.5063 245.749 36.9835 244.776 34.8516L241.137 36.512ZM246.446 42.8886C248.739 44.3575 251.356 45.0682 254.229 45.0682V41.0682C252.042 41.0682 250.189 40.5365 248.604 39.5205L246.446 42.8886ZM254.229 45.0682C257.103 45.0682 259.72 44.3575 262.013 42.8886L259.855 39.5205C258.269 40.5365 256.416 41.0682 254.229 41.0682V45.0682ZM262.022 42.8826C264.33 41.3859 266.079 39.2234 267.303 36.5025L263.655 34.8611C262.698 36.9887 261.416 38.508 259.846 39.5265L262.022 42.8826ZM267.301 36.5077C268.556 33.7403 269.138 30.456 269.138 26.7273H265.138C265.138 30.0591 264.615 32.7446 263.658 34.8559L267.301 36.5077ZM287.427 50H285.427V52H287.427V50ZM287.427 3.45454V1.45454H285.427V3.45454H287.427ZM295.859 3.45454H297.859V1.45454H295.859V3.45454ZM295.859 42.9318H293.859V44.9318H295.859V42.9318ZM316.359 42.9318H318.359V40.9318H316.359V42.9318ZM316.359 50V52H318.359V50H316.359ZM289.427 50V3.45454H285.427V50H289.427ZM287.427 5.45454H295.859V1.45454H287.427V5.45454ZM293.859 3.45454V42.9318H297.859V3.45454H293.859ZM295.859 44.9318H316.359V40.9318H295.859V44.9318ZM314.359 42.9318V50H318.359V42.9318H314.359ZM316.359 48H287.427V52H316.359V48ZM335.949 3.45454H337.949V1.45454H335.949V3.45454ZM335.949 50V52H337.949V50H335.949ZM327.517 50H325.517V52H327.517V50ZM327.517 3.45454V1.45454H325.517V3.45454H327.517ZM333.949 3.45454V50H337.949V3.45454H333.949ZM335.949 48H327.517V52H335.949V48ZM329.517 50V3.45454H325.517V50H329.517ZM327.517 5.45454H335.949V1.45454H327.517V5.45454ZM387.692 39.6136L385.922 38.6834L385.92 38.6862L387.692 39.6136ZM380.056 47.7955L379.044 46.0705L379.04 46.0726L380.056 47.7955ZM358.17 47.7955L357.148 49.5147L357.157 49.5204L358.17 47.7955ZM350.533 39.5909L348.76 40.5153L348.764 40.5243L350.533 39.5909ZM350.533 13.8636L348.763 12.9334L348.761 12.9362L350.533 13.8636ZM358.17 5.65909L357.157 3.93418L357.154 3.93627L358.17 5.65909ZM380.056 5.65909L379.04 7.38191L379.044 7.384L380.056 5.65909ZM387.692 13.8636L385.919 14.788L385.924 14.797L387.692 13.8636ZM380.374 17.7955L378.548 18.6119L378.552 18.6188L378.555 18.6256L380.374 17.7955ZM375.829 12.2727L374.741 13.9508L374.75 13.9568L375.829 12.2727ZM362.42 12.2727L363.499 13.9568L363.508 13.9508L362.42 12.2727ZM357.851 17.7955L356.03 16.9695L356.028 16.9747L357.851 17.7955ZM357.851 35.6818L356.026 36.4983L356.029 36.5052L356.032 36.512L357.851 35.6818ZM362.42 41.2045L361.331 42.8827L361.341 42.8886L362.42 41.2045ZM375.829 41.2045L376.908 42.8886L376.917 42.8826L375.829 41.2045ZM380.374 35.6818L378.553 34.8559L378.55 34.8611L380.374 35.6818ZM388.511 26.7273C388.511 31.4953 387.618 35.4557 385.922 38.6834L389.463 40.5439C391.525 36.6201 392.511 31.9896 392.511 26.7273H388.511ZM385.92 38.6862C384.217 41.9407 381.924 44.3802 379.044 46.0705L381.068 49.5204C384.642 47.4229 387.44 44.4078 389.464 40.5411L385.92 38.6862ZM379.04 46.0726C376.164 47.7685 372.877 48.6364 369.124 48.6364V52.6364C373.523 52.6364 377.524 51.6103 381.072 49.5183L379.04 46.0726ZM369.124 48.6364C365.372 48.6364 362.075 47.7685 359.182 46.0705L357.157 49.5204C360.719 51.6103 364.725 52.6364 369.124 52.6364V48.6364ZM359.191 46.0762C356.32 44.3699 354.023 41.9186 352.302 38.6576L348.764 40.5243C350.801 44.3844 353.595 47.4029 357.148 49.5147L359.191 46.0762ZM352.307 38.6665C350.623 35.4367 349.738 31.4813 349.738 26.7273H345.738C345.738 31.9732 346.716 36.5936 348.76 40.5153L352.307 38.6665ZM349.738 26.7273C349.738 21.9566 350.624 18.0032 352.305 14.7911L348.761 12.9362C346.715 16.8453 345.738 21.4676 345.738 26.7273H349.738ZM352.304 14.7939C354.025 11.5189 356.32 9.07128 359.185 7.38191L357.154 3.93627C353.595 6.03478 350.8 9.05686 348.763 12.9334L352.304 14.7939ZM359.182 7.384C362.075 5.68607 365.372 4.81818 369.124 4.81818V0.81818C364.725 0.81818 360.719 1.84423 357.157 3.93418L359.182 7.384ZM369.124 4.81818C372.877 4.81818 376.164 5.68608 379.04 7.38191L381.072 3.93626C377.524 1.84421 373.523 0.81818 369.124 0.81818V4.81818ZM379.044 7.384C381.922 9.07307 384.215 11.5184 385.919 14.788L389.466 12.9393C387.443 9.05738 384.645 6.03299 381.068 3.93418L379.044 7.384ZM385.924 14.797C387.618 18.0077 388.511 21.9589 388.511 26.7273H392.511C392.511 21.4653 391.525 16.8408 389.461 12.9303L385.924 14.797ZM384.033 26.7273C384.033 22.9991 383.451 19.7202 382.194 16.9653L378.555 18.6256C379.51 20.7192 380.033 23.3948 380.033 26.7273H384.033ZM382.2 16.979C380.976 14.2421 379.225 12.0733 376.908 10.5887L374.75 13.9568C376.311 14.957 377.591 16.47 378.548 18.6119L382.2 16.979ZM376.917 10.5946C374.623 9.10718 372.003 8.38636 369.124 8.38636V12.3864C371.306 12.3864 373.156 12.9231 374.741 13.9508L376.917 10.5946ZM369.124 8.38636C366.246 8.38636 363.625 9.10718 361.332 10.5946L363.508 13.9508C365.093 12.9231 366.942 12.3864 369.124 12.3864V8.38636ZM361.341 10.5887C359.026 12.0716 357.269 14.2369 356.03 16.9696L359.673 18.6214C360.646 16.4752 361.935 14.9587 363.499 13.9568L361.341 10.5887ZM356.028 16.9747C354.789 19.7269 354.215 23.0023 354.215 26.7273H358.215C358.215 23.3917 358.732 20.7125 359.675 18.6162L356.028 16.9747ZM354.215 26.7273C354.215 30.4529 354.789 33.7337 356.026 36.4983L359.677 34.8653C358.732 32.7512 358.215 30.0622 358.215 26.7273H354.215ZM356.032 36.512C357.271 39.2286 359.026 41.3877 361.332 42.8826L363.508 39.5265C361.934 38.5063 360.644 36.9835 359.671 34.8516L356.032 36.512ZM361.341 42.8886C363.634 44.3575 366.251 45.0682 369.124 45.0682V41.0682C366.937 41.0682 365.084 40.5365 363.499 39.5205L361.341 42.8886ZM369.124 45.0682C371.998 45.0682 374.615 44.3575 376.908 42.8886L374.75 39.5205C373.164 40.5365 371.311 41.0682 369.124 41.0682V45.0682ZM376.917 42.8826C379.225 41.3859 380.974 39.2234 382.198 36.5025L378.55 34.8611C377.593 36.9887 376.311 38.508 374.741 39.5265L376.917 42.8826ZM382.196 36.5077C383.451 33.7403 384.033 30.456 384.033 26.7273H380.033C380.033 30.0591 379.51 32.7446 378.553 34.8559L382.196 36.5077Z" fill="white" mask="url(#path-1-outside-1_89_5082)"/>
</svg>
